<mxfile host="app.diagrams.net" agent="Mozilla/5.0 (Windows NT 10.0; Win64; x64) AppleWebKit/537.36 (KHTML, like Gecko) Chrome/127.0.0.0 Safari/537.36" version="24.7.5">
  <diagram name="Page-1" id="JinCuNIW-KXKb7mToZtn">
    <mxGraphModel dx="1050" dy="1663" grid="1" gridSize="10" guides="1" tooltips="1" connect="1" arrows="1" fold="1" page="1" pageScale="1" pageWidth="850" pageHeight="1100" math="0" shadow="0">
      <root>
        <mxCell id="0" />
        <mxCell id="1" parent="0" />
        <mxCell id="jm-iQXW6yScGwn5Byqb1-1" value="" style="whiteSpace=wrap;html=1;aspect=fixed;" vertex="1" parent="1">
          <mxGeometry x="70" y="-30" width="680" height="680" as="geometry" />
        </mxCell>
        <mxCell id="jm-iQXW6yScGwn5Byqb1-2" value="" style="shape=note;whiteSpace=wrap;html=1;backgroundOutline=1;darkOpacity=0.05;" vertex="1" parent="1">
          <mxGeometry x="130" y="40" width="80" height="100" as="geometry" />
        </mxCell>
        <mxCell id="jm-iQXW6yScGwn5Byqb1-3" value="" style="shape=note;whiteSpace=wrap;html=1;backgroundOutline=1;darkOpacity=0.05;" vertex="1" parent="1">
          <mxGeometry x="280" y="40" width="80" height="100" as="geometry" />
        </mxCell>
        <mxCell id="jm-iQXW6yScGwn5Byqb1-4" value="" style="shape=note;whiteSpace=wrap;html=1;backgroundOutline=1;darkOpacity=0.05;" vertex="1" parent="1">
          <mxGeometry x="460" y="40" width="80" height="100" as="geometry" />
        </mxCell>
        <mxCell id="jm-iQXW6yScGwn5Byqb1-5" value="" style="shape=note;whiteSpace=wrap;html=1;backgroundOutline=1;darkOpacity=0.05;" vertex="1" parent="1">
          <mxGeometry x="130" y="190" width="80" height="100" as="geometry" />
        </mxCell>
        <mxCell id="jm-iQXW6yScGwn5Byqb1-6" value="" style="shape=note;whiteSpace=wrap;html=1;backgroundOutline=1;darkOpacity=0.05;" vertex="1" parent="1">
          <mxGeometry x="280" y="180" width="80" height="100" as="geometry" />
        </mxCell>
        <mxCell id="jm-iQXW6yScGwn5Byqb1-7" value="" style="shape=note;whiteSpace=wrap;html=1;backgroundOutline=1;darkOpacity=0.05;" vertex="1" parent="1">
          <mxGeometry x="470" y="190" width="80" height="100" as="geometry" />
        </mxCell>
        <mxCell id="jm-iQXW6yScGwn5Byqb1-8" value="" style="shape=note;whiteSpace=wrap;html=1;backgroundOutline=1;darkOpacity=0.05;" vertex="1" parent="1">
          <mxGeometry x="590" y="40" width="80" height="100" as="geometry" />
        </mxCell>
        <mxCell id="jm-iQXW6yScGwn5Byqb1-9" value="" style="shape=note;whiteSpace=wrap;html=1;backgroundOutline=1;darkOpacity=0.05;" vertex="1" parent="1">
          <mxGeometry x="610" y="190" width="80" height="100" as="geometry" />
        </mxCell>
        <mxCell id="jm-iQXW6yScGwn5Byqb1-10" value="" style="html=1;verticalLabelPosition=bottom;labelBackgroundColor=#ffffff;verticalAlign=top;shadow=0;dashed=0;strokeWidth=2;shape=mxgraph.ios7.misc.add;fillColor=#00dd00;strokeColor=#ffffff;sketch=0;" vertex="1" parent="1">
          <mxGeometry x="680" y="400" width="50" height="50" as="geometry" />
        </mxCell>
        <mxCell id="jm-iQXW6yScGwn5Byqb1-11" value="" style="shape=note;whiteSpace=wrap;html=1;backgroundOutline=1;darkOpacity=0.05;" vertex="1" parent="1">
          <mxGeometry x="260" y="320" width="120" height="130" as="geometry" />
        </mxCell>
      </root>
    </mxGraphModel>
  </diagram>
</mxfile>
